<mxfile host="app.diagrams.net" modified="2023-05-22T05:16:50.353Z" agent="Mozilla/5.0 (Windows NT 10.0; Win64; x64) AppleWebKit/537.36 (KHTML, like Gecko) Chrome/113.0.0.0 Safari/537.36" etag="_HRPzr1H9urEIC3qQ2P2" version="21.3.2" type="device">
  <diagram name="페이지-1" id="K5mix2D0pubi_YRWhcYW">
    <mxGraphModel dx="1912" dy="1008" grid="1" gridSize="10" guides="1" tooltips="1" connect="1" arrows="1" fold="1" page="1" pageScale="1" pageWidth="4681" pageHeight="3300" math="0" shadow="0">
      <root>
        <mxCell id="0" />
        <mxCell id="1" parent="0" />
        <mxCell id="5jAqCEedfJ-7EHYe_ysc-5" style="edgeStyle=orthogonalEdgeStyle;rounded=0;orthogonalLoop=1;jettySize=auto;html=1;entryX=0;entryY=0.5;entryDx=0;entryDy=0;" edge="1" parent="1" source="5jAqCEedfJ-7EHYe_ysc-1" target="5jAqCEedfJ-7EHYe_ysc-4">
          <mxGeometry relative="1" as="geometry" />
        </mxCell>
        <mxCell id="5jAqCEedfJ-7EHYe_ysc-1" value="&lt;font style=&quot;font-size: 20px;&quot;&gt;관리자(DBA)&lt;/font&gt;" style="shape=umlActor;verticalLabelPosition=bottom;verticalAlign=top;html=1;outlineConnect=0;" vertex="1" parent="1">
          <mxGeometry x="200" y="460" width="140" height="180" as="geometry" />
        </mxCell>
        <mxCell id="5jAqCEedfJ-7EHYe_ysc-3" value="&lt;font style=&quot;font-size: 20px;&quot;&gt;Storage&lt;/font&gt;" style="shape=cylinder3;whiteSpace=wrap;html=1;boundedLbl=1;backgroundOutline=1;size=15;" vertex="1" parent="1">
          <mxGeometry x="1020" y="457.5" width="150" height="185" as="geometry" />
        </mxCell>
        <mxCell id="5jAqCEedfJ-7EHYe_ysc-6" style="edgeStyle=orthogonalEdgeStyle;rounded=0;orthogonalLoop=1;jettySize=auto;html=1;" edge="1" parent="1" source="5jAqCEedfJ-7EHYe_ysc-7" target="5jAqCEedfJ-7EHYe_ysc-3">
          <mxGeometry relative="1" as="geometry" />
        </mxCell>
        <mxCell id="5jAqCEedfJ-7EHYe_ysc-4" value="&lt;font style=&quot;font-size: 20px;&quot;&gt;Sys 로그인&lt;/font&gt;" style="rounded=1;whiteSpace=wrap;html=1;" vertex="1" parent="1">
          <mxGeometry x="490" y="510" width="150" height="80" as="geometry" />
        </mxCell>
        <mxCell id="5jAqCEedfJ-7EHYe_ysc-8" value="" style="edgeStyle=orthogonalEdgeStyle;rounded=0;orthogonalLoop=1;jettySize=auto;html=1;" edge="1" parent="1" source="5jAqCEedfJ-7EHYe_ysc-4" target="5jAqCEedfJ-7EHYe_ysc-7">
          <mxGeometry relative="1" as="geometry">
            <mxPoint x="640" y="550" as="sourcePoint" />
            <mxPoint x="1030" y="550" as="targetPoint" />
          </mxGeometry>
        </mxCell>
        <mxCell id="5jAqCEedfJ-7EHYe_ysc-20" style="edgeStyle=orthogonalEdgeStyle;rounded=0;orthogonalLoop=1;jettySize=auto;html=1;entryX=0.5;entryY=0;entryDx=0;entryDy=0;entryPerimeter=0;" edge="1" parent="1" source="5jAqCEedfJ-7EHYe_ysc-7" target="5jAqCEedfJ-7EHYe_ysc-12">
          <mxGeometry relative="1" as="geometry">
            <mxPoint x="810" y="750" as="targetPoint" />
            <Array as="points">
              <mxPoint x="810" y="660" />
              <mxPoint x="565" y="660" />
            </Array>
          </mxGeometry>
        </mxCell>
        <mxCell id="5jAqCEedfJ-7EHYe_ysc-7" value="&lt;font style=&quot;font-size: 20px;&quot;&gt;DB, User Create&lt;br&gt;DB, User DROP&lt;br&gt;DB Alter&lt;/font&gt;" style="rounded=1;whiteSpace=wrap;html=1;" vertex="1" parent="1">
          <mxGeometry x="720" y="500" width="180" height="99" as="geometry" />
        </mxCell>
        <mxCell id="5jAqCEedfJ-7EHYe_ysc-9" value="&lt;font style=&quot;font-size: 19px;&quot;&gt;DDL&lt;br&gt;(Data Definition Lang)&lt;/font&gt;" style="text;html=1;strokeColor=none;fillColor=none;align=center;verticalAlign=middle;whiteSpace=wrap;rounded=0;" vertex="1" parent="1">
          <mxGeometry x="715.63" y="450" width="188.75" height="50" as="geometry" />
        </mxCell>
        <mxCell id="5jAqCEedfJ-7EHYe_ysc-15" style="edgeStyle=orthogonalEdgeStyle;rounded=0;orthogonalLoop=1;jettySize=auto;html=1;entryX=0;entryY=0.5;entryDx=0;entryDy=0;" edge="1" parent="1" source="5jAqCEedfJ-7EHYe_ysc-12" target="5jAqCEedfJ-7EHYe_ysc-14">
          <mxGeometry relative="1" as="geometry" />
        </mxCell>
        <mxCell id="5jAqCEedfJ-7EHYe_ysc-12" value="&lt;span style=&quot;font-size: 20px;&quot;&gt;유저(User)&lt;/span&gt;" style="shape=umlActor;verticalLabelPosition=bottom;verticalAlign=top;html=1;outlineConnect=0;" vertex="1" parent="1">
          <mxGeometry x="495" y="760" width="140" height="180" as="geometry" />
        </mxCell>
        <mxCell id="5jAqCEedfJ-7EHYe_ysc-16" style="edgeStyle=orthogonalEdgeStyle;rounded=0;orthogonalLoop=1;jettySize=auto;html=1;entryX=0.5;entryY=1;entryDx=0;entryDy=0;entryPerimeter=0;" edge="1" parent="1" source="5jAqCEedfJ-7EHYe_ysc-14" target="5jAqCEedfJ-7EHYe_ysc-3">
          <mxGeometry relative="1" as="geometry" />
        </mxCell>
        <mxCell id="5jAqCEedfJ-7EHYe_ysc-14" value="&lt;font style=&quot;font-size: 20px;&quot;&gt;User 로그인&lt;/font&gt;" style="rounded=1;whiteSpace=wrap;html=1;" vertex="1" parent="1">
          <mxGeometry x="760" y="810" width="150" height="80" as="geometry" />
        </mxCell>
        <mxCell id="5jAqCEedfJ-7EHYe_ysc-17" value="&lt;font style=&quot;font-size: 17px;&quot;&gt;CREATE : INSERT&lt;br&gt;READ : SELECT&lt;br&gt;UPDATE : UPDATE&lt;br&gt;DELETE : DELETE&lt;/font&gt;" style="rounded=1;whiteSpace=wrap;html=1;" vertex="1" parent="1">
          <mxGeometry x="1020" y="790" width="170" height="100" as="geometry" />
        </mxCell>
        <mxCell id="5jAqCEedfJ-7EHYe_ysc-18" value="&lt;font style=&quot;font-size: 19px;&quot;&gt;DML&lt;br&gt;&lt;font style=&quot;font-size: 19px;&quot;&gt;(Data Manupulation Lang)&lt;/font&gt;&lt;/font&gt;" style="text;html=1;strokeColor=none;fillColor=none;align=center;verticalAlign=middle;whiteSpace=wrap;rounded=0;" vertex="1" parent="1">
          <mxGeometry x="980.32" y="890" width="249.37" height="70" as="geometry" />
        </mxCell>
        <mxCell id="5jAqCEedfJ-7EHYe_ysc-21" value="&lt;font style=&quot;font-size: 20px;&quot;&gt;GRANT, REVOKE&lt;br&gt;COMMIT, ROLL BACK&lt;/font&gt;" style="rounded=1;whiteSpace=wrap;html=1;" vertex="1" parent="1">
          <mxGeometry x="729" y="230" width="230" height="99" as="geometry" />
        </mxCell>
        <mxCell id="5jAqCEedfJ-7EHYe_ysc-23" value="" style="edgeStyle=orthogonalEdgeStyle;rounded=0;orthogonalLoop=1;jettySize=auto;html=1;entryX=0;entryY=0.5;entryDx=0;entryDy=0;" edge="1" parent="1" target="5jAqCEedfJ-7EHYe_ysc-21">
          <mxGeometry relative="1" as="geometry">
            <mxPoint x="680" y="550" as="sourcePoint" />
            <mxPoint x="590" y="350" as="targetPoint" />
            <Array as="points">
              <mxPoint x="680" y="280" />
            </Array>
          </mxGeometry>
        </mxCell>
        <mxCell id="5jAqCEedfJ-7EHYe_ysc-24" value="&lt;span style=&quot;font-size: 19px;&quot;&gt;DCL&lt;br&gt;(Data Control Lang)&lt;br&gt;&lt;/span&gt;" style="text;html=1;strokeColor=none;fillColor=none;align=center;verticalAlign=middle;whiteSpace=wrap;rounded=0;" vertex="1" parent="1">
          <mxGeometry x="750.62" y="170" width="188.75" height="50" as="geometry" />
        </mxCell>
        <mxCell id="5jAqCEedfJ-7EHYe_ysc-25" value="" style="edgeStyle=orthogonalEdgeStyle;rounded=0;orthogonalLoop=1;jettySize=auto;html=1;exitX=1;exitY=0.5;exitDx=0;exitDy=0;entryX=0.5;entryY=0;entryDx=0;entryDy=0;entryPerimeter=0;" edge="1" parent="1" source="5jAqCEedfJ-7EHYe_ysc-21" target="5jAqCEedfJ-7EHYe_ysc-3">
          <mxGeometry relative="1" as="geometry">
            <mxPoint x="1180" y="370" as="sourcePoint" />
            <mxPoint x="1330" y="280" as="targetPoint" />
            <Array as="points">
              <mxPoint x="1095" y="280" />
            </Array>
          </mxGeometry>
        </mxCell>
      </root>
    </mxGraphModel>
  </diagram>
</mxfile>
